<svg width="180" height="51" viewBox="0 0 180 51" fill="none" xmlns="http://www.w3.org/2000/svg">
<g clip-path="url(#clip0_111_57)">
<path d="M18.4928 25.3567C16.7509 23.6273 15.0908 21.8708 13.7856 19.8144C12.7658 18.2076 12.0467 16.4896 11.9679 14.562C11.9023 12.9573 12.2736 11.4366 12.8929 9.95714C13.9526 7.42621 15.8297 5.62227 18.0035 4.06691C19.8359 2.75588 21.8676 1.77462 23.7712 0.581281C24.1035 0.372973 24.4081 0.104641 24.8035 0C24.8884 0.172783 24.7651 0.252768 24.7002 0.346594C23.2984 2.37334 21.9008 4.40306 20.4847 6.41981C20.2623 6.7365 20.2788 6.9022 20.5708 7.18084C22.7731 9.28285 24.6075 11.6702 26.033 14.3664C26.9542 16.1087 28.0674 17.7355 29.0897 19.4172C29.7175 20.4498 30.3509 21.4775 30.8339 22.592C31.1122 23.2344 31.0474 23.8354 30.7288 24.4193C30.2248 25.3432 29.5029 26.0455 28.5331 26.4812C27.9345 26.7501 27.3946 26.697 26.9056 26.2353C26.2295 25.5967 25.548 24.9637 24.8655 24.332C24.4096 23.9101 23.9191 23.5352 23.3924 23.2017C22.7709 22.8082 22.0618 22.828 21.3791 22.7175C19.7958 22.4612 18.3047 21.9853 17.077 20.8948C15.8324 19.7895 15.2352 18.351 15.0028 16.7435C14.904 16.0594 14.8744 15.3655 14.8021 14.5503C14.4515 15.4591 14.602 16.2588 14.7381 17.0389C15.1683 19.5035 16.3418 21.6438 17.7232 23.6855C18.2881 24.5206 18.899 25.3216 19.5551 26.0879C19.6401 26.1873 19.7749 26.2641 19.7547 26.5422C19.3071 26.1222 18.9117 25.751 18.4928 25.3567ZM21.174 12.669C21.0574 12.6821 20.9165 12.6491 20.8745 12.8431C21.1908 13.2435 21.5145 13.6541 21.8395 14.0635C21.8995 14.1392 21.9797 14.2031 22.0779 14.1783C22.8203 13.9907 23.2584 14.4766 23.7203 14.9118C23.9574 15.135 24.1933 15.3595 24.4417 15.595C24.2058 13.9866 22.8321 12.7372 21.174 12.669Z" fill="black"/>
<path d="M27.6951 38.5903C28.41 40.2985 28.8261 42.0253 28.7435 43.8606C28.6452 46.0465 27.7689 47.8984 26.3901 49.5471C26.182 49.7959 25.9542 50.0288 25.7287 50.2625C25.693 50.2994 25.6212 50.3013 25.5679 50.3189C25.3868 50.133 25.5044 49.9495 25.5403 49.7823C26.314 46.1863 25.9532 42.736 24.2351 39.455C23.0664 37.2233 21.43 35.3736 19.5341 33.746C17.0155 31.5839 14.5307 29.388 12.3463 26.8782C10.8337 25.1403 9.47725 23.3009 8.6565 21.1164C7.74813 18.6986 8.00697 16.3493 9.01451 14.0278C9.75829 12.314 10.6383 10.6833 11.8161 9.22458C12.0899 8.88543 12.0906 8.88587 12.4235 8.74097C12.5651 8.94281 12.3969 9.0874 12.3196 9.23365C11.6516 10.4976 11.0695 11.7927 10.774 13.2028C10.3112 15.4115 10.8339 17.4477 11.882 19.3746C13.3662 22.1035 15.4533 24.3509 17.6784 26.4786C19.3692 28.0953 21.1635 29.6032 22.7387 31.3416C24.7153 33.523 26.4924 35.838 27.6951 38.5903Z" fill="black"/>
<path d="M4.51273 17.1162C5.2034 15.6731 6.06744 14.3962 7.17045 13.2374C7.34049 13.5199 7.18151 13.6748 7.10899 13.827C6.45563 15.1984 6.00916 16.6314 5.95963 18.1528C5.90939 19.6956 6.29978 21.1587 6.96183 22.549C8.12559 24.9928 9.86525 27.0028 11.7346 28.9211C13.2956 30.5229 15.0412 31.9201 16.671 33.4441C18.8856 35.515 20.3947 37.9843 20.7931 41.0498C21.203 44.2043 20.2627 46.9187 18.1359 49.2484C18.0392 49.3544 17.953 49.5091 17.7583 49.4598C17.6614 49.295 17.795 49.1984 17.8671 49.0904C19.2706 46.9876 19.4033 44.7632 18.5012 42.4421C17.6729 40.3109 16.3119 38.5288 14.8056 36.8455C12.9603 34.7837 10.8885 32.9611 8.79077 31.1653C7.29521 29.8849 6.01871 28.4126 5.05242 26.6896C3.32079 23.6019 3.0487 20.424 4.51273 17.1162Z" fill="black"/>
<path d="M3.12831 27.0485C4.42097 29.1643 6.13117 30.8692 7.92025 32.5034C9.16539 33.6409 10.5227 34.6614 11.5096 36.0625C13.0088 38.1907 13.5461 40.5374 12.992 43.0733C12.7072 44.3765 11.9632 45.4862 11.0527 46.4665C10.9932 46.5305 10.9272 46.6122 10.809 46.5498C10.7306 46.3943 10.8535 46.2929 10.9257 46.1839C12.0026 44.558 12.0276 42.8514 11.3233 41.0871C10.6744 39.4615 9.61651 38.1086 8.45772 36.8285C7.12363 35.3548 5.62891 34.0499 4.12548 32.754C2.62998 31.4649 1.36682 29.9905 0.613146 28.1354C-0.420917 25.5901 -0.114808 23.1646 1.28847 20.8446C1.61775 20.3002 1.98604 19.7817 2.41014 19.3061C2.50692 19.1976 2.56771 19.0289 2.86233 19.0385C2.29624 20.3511 1.78732 21.6547 1.8441 23.0815C1.90094 24.5091 2.38138 25.8055 3.12831 27.0485Z" fill="black"/>
<path d="M34.1621 25.4876V24.5358H42.1468H50.158V24.6416C50.1933 24.765 50.3255 25.9019 50.5546 28.0523C50.819 30.2555 50.9601 31.3924 50.9776 31.463V31.5687H50.0258H49.074C49.074 31.4982 49.0475 31.3131 48.9947 31.0135C48.9066 30.3084 48.8096 29.7708 48.7038 29.4007C48.3513 28.0258 47.5758 27.1357 46.3772 26.7303C46.201 26.6598 46.007 26.6069 45.7955 26.5717C45.443 26.5011 44.5793 26.4571 43.2044 26.4395H41.433V29.5065V32.5734H41.856C42.8784 32.5734 43.5834 32.3796 43.9712 31.9918C44.3061 31.6568 44.4999 30.9958 44.5528 30.0088V29.48H45.5046H46.4565V33.5253V37.5705H45.5046H44.5528V37.0417C44.4999 36.0547 44.3061 35.3937 43.9712 35.0587C43.5834 34.6709 42.8784 34.4771 41.856 34.4771H41.433V37.5441V40.611H43.2309H45.0023V41.5629V42.5147H44.6321L41.7502 42.4618C40.0758 42.4441 38.5071 42.4441 37.044 42.4618C35.3343 42.497 34.4883 42.5147 34.5058 42.5147H34.1621V41.5629V40.611H35.5898H37.0176V33.5253V26.4395H35.5898H34.1621V25.4876ZM58.2124 30.564L60.3805 30.5905C62.6895 30.8549 64.1613 31.7274 64.7958 33.208C64.8663 33.3666 64.9192 33.5253 64.9545 33.6839L65.0338 33.9747L65.0602 37.1475C65.0602 39.2097 65.0778 40.2761 65.1131 40.3466C65.2541 40.4876 65.633 40.5758 66.25 40.611C66.532 40.611 66.7347 40.6463 66.8581 40.7168C66.9639 40.8225 67.0168 41.1046 67.0168 41.5629C67.0168 42.0211 66.955 42.3032 66.8317 42.4089C66.6554 42.4795 66.0914 42.5147 65.1396 42.5147C64.082 42.497 63.3857 42.4354 63.0508 42.3296C62.5044 42.1533 62.1519 41.8801 61.9933 41.51C61.9227 41.369 61.8875 41.2897 61.8875 41.272C61.8875 41.2544 61.8082 41.2985 61.6495 41.4042C60.8739 42.0211 59.834 42.4266 58.5297 42.6204C57.8423 42.691 57.3046 42.6998 56.9169 42.6469C55.3305 42.4706 54.2112 41.8185 53.5591 40.6904C53.4004 40.426 53.2858 40.1528 53.2154 39.8707C53.1625 39.6769 53.136 39.43 53.136 39.1304C53.136 38.7074 53.2065 38.346 53.3475 38.0464C53.5591 37.6234 53.8499 37.262 54.2201 36.9624C54.8369 36.4865 55.6213 36.1163 56.5732 35.8519C57.7365 35.4994 59.1201 35.2879 60.7242 35.2174L61.3852 35.1909V34.715L61.3587 34.0276V34.0012C61.253 33.2609 60.8916 32.7408 60.2747 32.4412C59.8869 32.2474 59.3845 32.1504 58.7676 32.1504C58.0449 32.1504 57.666 32.1681 57.6307 32.2033L57.7101 32.3619C57.851 32.6086 57.9127 32.9259 57.8951 33.3137C57.8951 33.5958 57.8775 33.7984 57.8423 33.9218C57.7365 34.2391 57.5779 34.5035 57.3664 34.715C57.1372 34.9442 56.864 35.1116 56.5467 35.2174C56.4056 35.2526 56.203 35.2703 55.9386 35.2703C55.6742 35.2703 55.4803 35.2526 55.3569 35.2174C55.022 35.1116 54.74 34.9442 54.5109 34.715C54.2994 34.5035 54.1407 34.2391 54.035 33.9218C53.9997 33.7984 53.9821 33.5958 53.9821 33.3137C53.9821 33.0317 53.9997 32.829 54.035 32.7056C54.2994 31.7361 55.1542 31.0928 56.5996 30.7755C57.0755 30.6698 57.6131 30.5992 58.2124 30.564ZM61.3852 38.0464C61.3852 37.1298 61.3763 36.6716 61.3587 36.6716C61.3411 36.6716 61.2969 36.6803 61.2265 36.698C60.1865 36.7685 59.2788 36.9536 58.5032 37.2532C57.6747 37.5882 57.1548 38.0552 56.9433 38.6545C56.8551 38.9012 56.8463 39.2185 56.9169 39.6063C57.0931 40.3114 57.4985 40.7697 58.1331 40.9812C58.1683 40.9988 58.2124 41.0164 58.2653 41.0341C58.9174 41.1398 59.6048 41.0076 60.3276 40.6375C60.3805 40.6198 60.4333 40.5934 60.4862 40.5582C60.821 40.3466 61.059 40.1087 61.2001 39.8443C61.3058 39.6328 61.3675 39.2803 61.3852 38.7867V38.0464ZM72.0824 30.564H73.748C74.3474 30.6169 74.8497 30.7227 75.2551 30.8813L75.4402 30.9342L75.9161 30.7491L76.392 30.5376H76.6828C76.8767 30.5376 77.0001 30.5553 77.053 30.5905C77.1587 30.661 77.2204 30.8372 77.2381 31.1193C77.2381 31.2779 77.2381 31.6568 77.2381 32.2562C77.2381 33.2609 77.1764 33.8073 77.053 33.8954C76.9824 33.9306 76.7269 33.9483 76.2862 33.9483C75.8455 33.9483 75.59 33.9306 75.5195 33.8954C75.3961 33.8073 75.3344 33.6927 75.3344 33.5517C75.3344 33.0052 75.0788 32.6086 74.5677 32.3619C74.1446 32.1504 73.5717 32.0446 72.8491 32.0446C72.1617 32.0446 71.6241 32.124 71.2363 32.2826C70.778 32.4765 70.5489 32.8026 70.5489 33.2609C70.5489 33.3314 70.5665 33.4107 70.6017 33.4988C70.6546 33.728 70.8485 33.9218 71.1834 34.0805C71.4301 34.2215 72.0559 34.389 73.0606 34.5828C73.9772 34.7415 74.6205 34.8737 74.9907 34.9794C76.0483 35.3496 76.8502 35.9312 77.3967 36.7244C77.6434 37.1298 77.8197 37.5264 77.9255 37.9142C77.9607 38.0905 77.9784 38.3549 77.9784 38.7074C77.9784 39.0775 77.9607 39.3507 77.9255 39.527C77.6963 40.7609 77.0265 41.6334 75.9161 42.1445C75.4402 42.3737 74.8497 42.5323 74.1446 42.6204C74.0212 42.6381 73.6687 42.6469 73.0871 42.6469C72.4525 42.6469 71.8885 42.594 71.3949 42.4882C71.0777 42.4001 70.7692 42.2855 70.4695 42.1445L70.1787 42.0123L69.5442 42.3296L68.8832 42.6733H68.6188C68.4073 42.6733 68.2751 42.6557 68.2222 42.6204C68.1164 42.5676 68.0548 42.4089 68.0371 42.1445C68.0371 41.9682 68.0371 41.4659 68.0371 40.6375C68.0371 39.4213 68.09 38.769 68.1958 38.681C68.2838 38.6281 68.5395 38.6016 68.9625 38.6016C69.4207 38.6016 69.6851 38.6193 69.7557 38.6545C69.8086 38.6897 69.8967 38.8484 70.0201 39.1304C70.355 40.0999 71.0071 40.6991 71.9766 40.9283C72.7698 41.1398 73.5806 41.131 74.409 40.9019C75.0259 40.6904 75.3785 40.329 75.4666 39.8178C75.5724 39.1833 75.2463 38.7074 74.4883 38.3901C74.2063 38.2667 73.6599 38.1345 72.8491 37.9935C72.0383 37.8525 71.5888 37.7643 71.5007 37.7291C69.8438 37.3413 68.7598 36.5481 68.2486 35.3496C68.1958 35.2086 68.1517 35.0675 68.1164 34.9265C68.0812 34.7679 68.0636 34.5212 68.0636 34.1862C68.0636 33.8513 68.0723 33.631 68.09 33.5253C68.3192 32.4148 68.9273 31.6128 69.9143 31.1193C70.5136 30.802 71.2363 30.6169 72.0824 30.564ZM83.1897 25.8842V25.7256H84.1415H85.0933V28.2374V30.7755H86.8648H88.6362V31.7274V32.6792H86.8648H85.0933V36.275C85.1109 38.7603 85.1462 40.0822 85.1991 40.2409C85.1991 40.2585 85.2255 40.3114 85.2784 40.3995C85.3842 40.611 85.5428 40.7697 85.7543 40.8754C85.8424 40.9106 85.9746 40.9283 86.1509 40.9283C86.3271 40.9283 86.4417 40.9106 86.4946 40.8754C86.7766 40.7697 86.997 40.4436 87.1556 39.8972C87.1908 39.7737 87.2173 39.3948 87.2349 38.7603V37.8349H88.1868H89.1386V38.681C89.1386 39.4213 89.0768 39.9677 88.9535 40.3202C88.7595 40.9019 88.4158 41.4042 87.9224 41.8273C87.3407 42.2679 86.7061 42.5411 86.0187 42.6469C85.8601 42.6645 85.5868 42.6733 85.1991 42.6733C84.4763 42.6557 83.8859 42.5499 83.4276 42.356C82.846 42.1622 82.3701 41.8096 81.9999 41.2985C81.7179 40.9106 81.5328 40.4083 81.4447 39.7914C81.427 39.7033 81.4182 38.4782 81.4182 36.1163V32.6792H80.5193H79.5939V31.886V31.0664H79.8319C80.3959 31.0135 80.8982 30.8196 81.3389 30.4847C82.2379 29.7796 82.8107 28.6692 83.0575 27.1533C83.1456 26.6774 83.1897 26.2544 83.1897 25.8842Z" fill="black"/>
<path d="M94.629 24.8267V24.668H103.539H112.476V24.8267L112.766 28.1845C112.925 30.3877 113.013 31.5071 113.031 31.5423V31.7009H112.079C111.444 31.7009 111.127 31.6922 111.127 31.6745C111.127 31.322 111.083 30.8636 110.995 30.2996C110.889 29.5065 110.739 28.8542 110.545 28.3431C110.281 27.7262 109.832 27.2679 109.197 26.9683C108.933 26.8273 108.58 26.7215 108.139 26.651C107.981 26.6158 107.531 26.5893 106.791 26.5717H105.76V33.5781V40.611H107.796H109.805V41.5629V42.5147H109.382L106.262 42.4618C104.447 42.4441 102.64 42.4441 100.842 42.4618L97.7224 42.5147H97.2993V41.5629V40.611H99.3352H101.345V33.5781V26.5717H100.313C99.5731 26.5893 99.1237 26.6158 98.965 26.651C98.1366 26.8096 97.5021 27.1181 97.0614 27.5764C96.7794 27.8584 96.5503 28.2815 96.374 28.8455C96.233 29.3566 96.1185 30.141 96.0303 31.1986C95.995 31.4982 95.9774 31.6568 95.9774 31.6745C95.9774 31.6922 95.6601 31.7009 95.0256 31.7009H94.0737V31.5423L94.3646 28.1845C94.5232 25.9812 94.6114 24.8619 94.629 24.8267ZM117.229 30.7227C118.887 30.6521 119.698 30.6169 119.662 30.6169H119.82V31.3043L119.847 31.9918L119.926 31.8596C120.261 31.366 120.711 31.0135 121.275 30.802C122.139 30.4847 123.09 30.5376 124.13 30.9606C124.36 31.0312 124.563 31.128 124.738 31.2515C125.338 31.6568 125.69 32.1592 125.796 32.7585C125.867 33.0758 125.849 33.3754 125.743 33.6575C125.602 34.2039 125.285 34.6005 124.791 34.8472C124.492 34.9707 124.192 35.0323 123.892 35.0323C123.558 35.0323 123.258 34.9707 122.993 34.8472C122.482 34.6005 122.147 34.2039 121.988 33.6575C121.972 33.5694 121.962 33.3843 121.962 33.1022C121.962 32.8202 121.98 32.6175 122.015 32.4941C122.086 32.3355 122.104 32.2562 122.068 32.2562C122.015 32.2033 121.856 32.2562 121.592 32.4148C121.327 32.5382 121.089 32.7497 120.878 33.0493C120.544 33.5781 120.306 34.3537 120.164 35.376C120.147 35.5523 120.129 36.4865 120.111 38.1786V40.611H121.248H122.411V41.5629V42.5147H122.121L120.111 42.4618C118.948 42.4441 117.847 42.4441 116.806 42.4618C115.626 42.497 115.026 42.5147 115.008 42.5147H114.77V41.5629V40.611H115.696H116.595V36.9624C116.595 34.53 116.578 33.2696 116.542 33.1815C116.489 33.0052 116.375 32.8907 116.198 32.8378C115.952 32.7673 115.59 32.7321 115.114 32.7321H114.77V31.7803V30.8284H114.85L117.229 30.7227ZM132.608 30.564L134.776 30.5905C137.084 30.8549 138.556 31.7274 139.191 33.208C139.262 33.3666 139.315 33.5253 139.35 33.6839L139.429 33.9747L139.455 37.1475C139.455 39.2097 139.473 40.2761 139.508 40.3466C139.649 40.4876 140.029 40.5758 140.645 40.611C140.928 40.611 141.13 40.6463 141.253 40.7168C141.359 40.8226 141.412 41.1046 141.412 41.5629C141.412 42.0211 141.351 42.3032 141.227 42.4089C141.05 42.4795 140.487 42.5147 139.535 42.5147C138.477 42.497 137.781 42.4354 137.446 42.3296C136.899 42.1533 136.547 41.8801 136.388 41.51C136.318 41.369 136.283 41.2897 136.283 41.272C136.283 41.2544 136.203 41.2985 136.045 41.4042C135.27 42.0211 134.229 42.4266 132.925 42.6204C132.237 42.691 131.7 42.6998 131.312 42.6469C129.726 42.4706 128.607 41.8185 127.954 40.6904C127.796 40.426 127.681 40.1528 127.611 39.8707C127.558 39.6769 127.531 39.43 127.531 39.1304C127.531 38.7074 127.602 38.346 127.743 38.0464C127.954 37.6234 128.245 37.262 128.615 36.9624C129.232 36.4865 130.017 36.1163 130.968 35.8519C132.132 35.4994 133.515 35.2879 135.119 35.2174L135.78 35.1909V34.715L135.754 34.0276V34.0012C135.648 33.2609 135.286 32.7409 134.67 32.4412C134.282 32.2474 133.779 32.1504 133.163 32.1504C132.44 32.1504 132.061 32.1681 132.026 32.2033L132.105 32.3619C132.246 32.6087 132.308 32.9259 132.29 33.3137C132.29 33.5958 132.272 33.7984 132.237 33.9218C132.132 34.2391 131.973 34.5035 131.762 34.715C131.532 34.9442 131.259 35.1116 130.942 35.2174C130.801 35.2526 130.598 35.2703 130.334 35.2703C130.069 35.2703 129.876 35.2526 129.752 35.2174C129.417 35.1116 129.136 34.9442 128.906 34.715C128.695 34.5035 128.536 34.2391 128.43 33.9218C128.395 33.7984 128.377 33.5958 128.377 33.3137C128.377 33.0317 128.395 32.8291 128.43 32.7056C128.695 31.7361 129.549 31.0928 130.995 30.7756C131.471 30.6698 132.008 30.5993 132.608 30.564ZM135.78 38.0464C135.78 37.1298 135.772 36.6716 135.754 36.6716C135.736 36.6716 135.693 36.6803 135.622 36.698C134.582 36.7685 133.674 36.9536 132.898 37.2532C132.07 37.5882 131.55 38.0552 131.338 38.6545C131.251 38.9012 131.241 39.2185 131.312 39.6063C131.489 40.3114 131.894 40.7697 132.528 40.9812C132.563 40.9989 132.608 41.0164 132.66 41.0341C133.313 41.1398 134 41.0076 134.723 40.6375C134.776 40.6198 134.829 40.5934 134.881 40.5582C135.217 40.3466 135.455 40.1087 135.595 39.8443C135.701 39.6328 135.762 39.2803 135.78 38.7867V38.0464ZM142.089 31.7274V30.7756H142.327L143.966 30.8284C144.9 30.8461 145.905 30.8461 146.98 30.8284L148.831 30.7756H149.069V31.7274V32.6792H148.487H147.905L149.095 35.376C149.888 37.2268 150.285 38.1434 150.285 38.1257C150.303 38.1609 150.338 38.1257 150.391 38.02C150.462 37.879 150.84 37.024 151.528 35.4553L152.744 32.6792H152.162H151.581V31.7274V30.7756H151.766L153.193 30.8284C154.005 30.8461 154.753 30.8461 155.441 30.8284L156.631 30.7756H156.789V31.7274V32.6792H155.811H154.833L152.744 37.4383C151.528 40.2585 150.814 41.8714 150.602 42.2767C150.515 42.4177 150.373 42.5235 150.179 42.594C150.003 42.6469 149.58 42.6557 148.91 42.6204C148.804 42.6204 148.734 42.6117 148.699 42.594C148.505 42.5235 148.363 42.4177 148.276 42.2767C148.064 41.8714 147.35 40.2585 146.134 37.4383L144.072 32.6792H143.067H142.089V31.7274ZM164.229 30.564L166.001 30.5905C167.253 30.7668 168.258 31.2074 169.015 31.9124C169.897 32.7937 170.399 33.9924 170.522 35.5082C170.575 36.1604 170.495 36.557 170.284 36.698C170.214 36.7332 168.874 36.7509 166.265 36.7509H162.378V37.2797C162.431 38.5135 162.679 39.3772 163.119 39.8707C163.155 39.9059 163.198 39.9501 163.251 40.0029C163.763 40.5141 164.538 40.8226 165.578 40.9283C165.984 40.9635 166.318 40.9548 166.582 40.9019C167.534 40.7609 168.205 40.285 168.592 39.4741C168.61 39.4213 168.628 39.3772 168.645 39.3419C168.733 39.1128 168.874 38.9895 169.068 38.9718C169.156 38.9541 169.332 38.9454 169.596 38.9454C169.985 38.9454 170.214 38.963 170.284 38.9982C170.495 39.104 170.575 39.2891 170.522 39.5535C170.416 39.9236 170.24 40.2673 169.993 40.5846C169.2 41.6774 167.957 42.356 166.265 42.6204C165.772 42.691 165.111 42.6998 164.282 42.6469C164.229 42.6292 164.176 42.6204 164.123 42.6204C161.268 42.2503 159.444 40.9107 158.65 38.6016C158.545 38.2491 158.457 37.879 158.386 37.4912C158.316 36.9976 158.316 36.4159 158.386 35.7462C158.386 35.6933 158.386 35.6492 158.386 35.614C158.581 34.4683 158.994 33.5076 159.629 32.7321C159.858 32.4148 160.193 32.0975 160.633 31.7803C161.603 31.0752 162.801 30.6698 164.229 30.564ZM165.419 32.2033C165.155 32.1504 164.82 32.1416 164.414 32.1768C163.621 32.3178 163.066 32.7144 162.749 33.3666C162.573 33.7368 162.458 34.2743 162.405 34.9794V35.2174H164.864H167.349L167.323 35.0852C167.147 33.4459 166.513 32.4853 165.419 32.2033ZM174.947 24.2714C176.71 24.2009 177.573 24.1657 177.538 24.1657H177.696V32.3884V40.611H178.622H179.521V41.5629V42.5147H179.283L177.485 42.4618C176.445 42.4441 175.414 42.4441 174.391 42.4618L172.594 42.5147H172.356V41.5629V40.611H173.281H174.18V33.7368C174.18 29.154 174.162 26.8184 174.127 26.7303C174.074 26.554 173.96 26.4395 173.783 26.3866C173.537 26.3161 173.175 26.2808 172.699 26.2808H172.356V25.329V24.3772H172.435C172.347 24.3772 173.184 24.342 174.947 24.2714Z" fill="black"/>
</g>
<defs>
<clipPath id="clip0_111_57">
<rect width="180" height="50.3408" fill="white"/>
</clipPath>
</defs>
</svg>
