<svg width="50" height="82" viewBox="0 0 50 82" fill="none" xmlns="http://www.w3.org/2000/svg">
<g clip-path="url(#clip0_111_64)">
<path d="M29.7951 40.8541C26.9888 38.0675 24.314 35.2375 22.211 31.9242C20.568 29.3356 19.4095 26.5675 19.2825 23.462C19.1769 20.8763 19.7748 18.4264 20.7728 16.0427C22.48 11.9649 25.5045 9.05843 29.0069 6.55249C31.9592 4.44018 35.2325 2.85921 38.2996 0.936543C38.835 0.600923 39.3257 0.168595 39.9629 0C40.0994 0.278383 39.901 0.407252 39.7964 0.558422C37.5379 3.82385 35.286 7.09408 33.0045 10.3434C32.6462 10.8537 32.6728 11.1207 33.1432 11.5696C36.6915 14.9563 39.6469 18.8026 41.9437 23.1466C43.4281 25.9539 45.2216 28.575 46.8686 31.2844C47.8799 32.948 48.9005 34.604 49.6787 36.3996C50.1272 37.4346 50.0227 38.4029 49.5095 39.3437C48.6974 40.8321 47.5343 41.9637 45.9718 42.6656C45.0074 43.099 44.1375 43.0134 43.3496 42.2694C42.2603 41.2405 41.1623 40.2208 40.0627 39.203C39.3282 38.5232 38.538 37.9192 37.6894 37.382C36.6879 36.7479 35.5454 36.7798 34.4456 36.6017C31.8945 36.1888 29.4922 35.4219 27.514 33.6651C25.5089 31.8843 24.5467 29.5667 24.1723 26.9765C24.013 25.8745 23.9653 24.7563 23.849 23.443C23.2841 24.9072 23.5266 26.1957 23.7459 27.4525C24.4387 31.4234 26.3296 34.8718 28.5551 38.1614C29.4655 39.5069 30.4495 40.7974 31.5067 42.0321C31.6436 42.1921 31.8608 42.3159 31.8282 42.764C31.1072 42.0873 30.47 41.4893 29.7951 40.8541ZM34.1152 20.4118C33.9271 20.4329 33.7003 20.3797 33.6325 20.6925C34.1422 21.3375 34.6636 21.999 35.1873 22.6587C35.2841 22.7806 35.4132 22.8837 35.5715 22.8436C36.7674 22.5415 37.4734 23.3243 38.2175 24.0253C38.5994 24.3851 38.9797 24.7469 39.38 25.1262C38.9997 22.5347 36.7865 20.5218 34.1152 20.4118Z" fill="white"/>
<path d="M44.6216 62.1755C45.7734 64.9279 46.4437 67.7099 46.3107 70.6668C46.1522 74.1886 44.7404 77.1725 42.519 79.8287C42.1837 80.2297 41.8167 80.6049 41.4534 80.9815C41.396 81.0409 41.2801 81.044 41.1943 81.0723C40.9024 80.7728 41.0919 80.4771 41.1499 80.2076C42.3964 74.414 41.8151 68.855 39.0469 63.5687C37.164 59.9731 34.5275 56.9927 31.4729 54.3704C27.415 50.887 23.4114 47.349 19.892 43.3053C17.4551 40.5054 15.2695 37.5418 13.9471 34.0221C12.4836 30.1266 12.9007 26.3415 14.524 22.6011C15.7223 19.8399 17.1402 17.2127 19.0379 14.8623C19.4791 14.3159 19.4799 14.3167 20.0163 14.0832C20.2446 14.4084 19.9737 14.6414 19.8492 14.877C18.7728 16.9134 17.8349 19.0001 17.3589 21.272C16.6132 24.8304 17.4554 28.1112 19.144 31.2159C21.5353 35.6124 24.898 39.2334 28.483 42.6615C31.2072 45.2664 34.0981 47.6958 36.6359 50.4966C39.8206 54.0113 42.6838 57.7411 44.6216 62.1755Z" fill="white"/>
<path d="M7.2707 27.5771C8.3835 25.252 9.77559 23.1947 11.5527 21.3278C11.8267 21.7829 11.5706 22.0325 11.4537 22.2777C10.4011 24.4872 9.68176 26.796 9.60191 29.2472C9.52096 31.733 10.1499 34.0901 11.2166 36.3301C13.0916 40.2676 15.8945 43.5063 18.9064 46.5968C21.4214 49.1776 24.2339 51.4287 26.8599 53.8843C30.4278 57.2207 32.8592 61.1992 33.5011 66.1382C34.1615 71.2206 32.6466 75.5939 29.2199 79.3476C29.0642 79.5182 28.9253 79.7675 28.6117 79.6881C28.4554 79.4227 28.6707 79.267 28.7868 79.0929C31.048 75.705 31.262 72.1211 29.8085 68.3816C28.4739 64.9478 26.2811 62.0763 23.8543 59.3645C20.8813 56.0424 17.5433 53.106 14.1633 50.2124C11.7538 48.1496 9.69711 45.7775 8.14024 43.0014C5.35029 38.0267 4.9119 32.9066 7.2707 27.5771Z" fill="white"/>
<path d="M5.04023 43.5797C7.12293 46.9887 9.87838 49.7355 12.7609 52.3685C14.767 54.201 16.9539 55.8454 18.5439 58.1028C20.9594 61.5316 21.8251 65.3127 20.9323 69.3983C20.4736 71.4981 19.2748 73.286 17.8077 74.8655C17.712 74.9686 17.6056 75.1001 17.4152 74.9996C17.2889 74.7491 17.4869 74.5857 17.6032 74.4101C19.3382 71.7905 19.3786 69.0408 18.2438 66.1982C17.1983 63.5791 15.4938 61.3994 13.6268 59.337C11.4774 56.9625 9.06913 54.8602 6.64684 52.7722C4.23734 50.6952 2.20217 48.3198 0.987878 45.3309C-0.678169 41.2301 -0.184975 37.3221 2.07595 33.5842C2.60646 32.7071 3.19986 31.8717 3.88315 31.1054C4.03907 30.9306 4.13701 30.6588 4.6117 30.6742C3.69963 32.7892 2.87967 34.8894 2.97117 37.1882C3.06272 39.4883 3.83682 41.5769 5.04023 43.5797Z" fill="white"/>
</g>
<defs>
<clipPath id="clip0_111_64">
<rect width="50" height="81.0811" fill="white"/>
</clipPath>
</defs>
</svg>
